<mxfile host="app.diagrams.net" agent="Mozilla/5.0 (Windows NT 10.0; Win64; x64) AppleWebKit/537.36 (KHTML, like Gecko) Chrome/128.0.0.0 Safari/537.36" version="24.7.13">
  <diagram name="Page-1" id="NcwkcK1UKOw3vpl2f1bM">
    <mxGraphModel dx="1434" dy="780" grid="1" gridSize="10" guides="1" tooltips="1" connect="1" arrows="1" fold="1" page="1" pageScale="1" pageWidth="850" pageHeight="1100" math="0" shadow="0">
      <root>
        <mxCell id="0" />
        <mxCell id="1" parent="0" />
        <mxCell id="-qnGBxWbzr4GxB2GnGsg-8" value="" style="ellipse;whiteSpace=wrap;html=1;aspect=fixed;fillColor=#0050ef;strokeColor=#001DBC;fontColor=#ffffff;" vertex="1" parent="1">
          <mxGeometry x="372.5" y="17.5" width="95" height="95" as="geometry" />
        </mxCell>
        <mxCell id="-qnGBxWbzr4GxB2GnGsg-1" value="" style="rounded=0;whiteSpace=wrap;html=1;" vertex="1" parent="1">
          <mxGeometry x="365" y="130" width="120" height="40" as="geometry" />
        </mxCell>
        <mxCell id="-qnGBxWbzr4GxB2GnGsg-2" value="&lt;font style=&quot;font-size: 50px;&quot;&gt;Title&lt;/font&gt;" style="text;html=1;align=center;verticalAlign=middle;whiteSpace=wrap;rounded=0;" vertex="1" parent="1">
          <mxGeometry x="332.5" y="10" width="175" height="110" as="geometry" />
        </mxCell>
        <mxCell id="-qnGBxWbzr4GxB2GnGsg-3" value="Play" style="text;html=1;align=center;verticalAlign=middle;whiteSpace=wrap;rounded=0;fontSize=20;" vertex="1" parent="1">
          <mxGeometry x="395" y="135" width="60" height="30" as="geometry" />
        </mxCell>
        <mxCell id="-qnGBxWbzr4GxB2GnGsg-4" value="" style="rounded=0;whiteSpace=wrap;html=1;" vertex="1" parent="1">
          <mxGeometry x="365" y="210" width="120" height="40" as="geometry" />
        </mxCell>
        <mxCell id="-qnGBxWbzr4GxB2GnGsg-5" value="" style="rounded=0;whiteSpace=wrap;html=1;" vertex="1" parent="1">
          <mxGeometry x="365" y="290" width="120" height="40" as="geometry" />
        </mxCell>
        <mxCell id="-qnGBxWbzr4GxB2GnGsg-6" value="Options" style="text;html=1;align=center;verticalAlign=middle;whiteSpace=wrap;rounded=0;fontSize=20;" vertex="1" parent="1">
          <mxGeometry x="395" y="215" width="60" height="30" as="geometry" />
        </mxCell>
        <mxCell id="-qnGBxWbzr4GxB2GnGsg-7" value="Quit" style="text;html=1;align=center;verticalAlign=middle;whiteSpace=wrap;rounded=0;fontSize=20;" vertex="1" parent="1">
          <mxGeometry x="395" y="295" width="60" height="30" as="geometry" />
        </mxCell>
        <mxCell id="-qnGBxWbzr4GxB2GnGsg-9" value="" style="ellipse;whiteSpace=wrap;html=1;aspect=fixed;fillColor=#e51400;fontColor=#ffffff;strokeColor=#B20000;" vertex="1" parent="1">
          <mxGeometry x="170" y="160" width="80" height="80" as="geometry" />
        </mxCell>
        <mxCell id="-qnGBxWbzr4GxB2GnGsg-10" value="" style="ellipse;whiteSpace=wrap;html=1;aspect=fixed;fillColor=#FFE100;strokeColor=#B09500;fontColor=#000000;" vertex="1" parent="1">
          <mxGeometry x="600" y="160" width="80" height="80" as="geometry" />
        </mxCell>
        <mxCell id="-qnGBxWbzr4GxB2GnGsg-11" value="" style="endArrow=classic;html=1;rounded=0;exitX=0.75;exitY=0;exitDx=0;exitDy=0;" edge="1" parent="1" source="-qnGBxWbzr4GxB2GnGsg-13">
          <mxGeometry width="50" height="50" relative="1" as="geometry">
            <mxPoint x="460" y="400" as="sourcePoint" />
            <mxPoint x="640" y="250" as="targetPoint" />
          </mxGeometry>
        </mxCell>
        <mxCell id="-qnGBxWbzr4GxB2GnGsg-12" value="" style="endArrow=classic;html=1;rounded=0;exitX=0.25;exitY=0;exitDx=0;exitDy=0;" edge="1" parent="1" source="-qnGBxWbzr4GxB2GnGsg-13">
          <mxGeometry width="50" height="50" relative="1" as="geometry">
            <mxPoint x="370" y="400" as="sourcePoint" />
            <mxPoint x="210" y="250" as="targetPoint" />
          </mxGeometry>
        </mxCell>
        <mxCell id="-qnGBxWbzr4GxB2GnGsg-13" value="Decorational" style="text;html=1;align=center;verticalAlign=middle;whiteSpace=wrap;rounded=0;" vertex="1" parent="1">
          <mxGeometry x="395" y="400" width="60" height="30" as="geometry" />
        </mxCell>
        <mxCell id="-qnGBxWbzr4GxB2GnGsg-14" value="Press to play the game" style="text;html=1;align=center;verticalAlign=middle;whiteSpace=wrap;rounded=0;" vertex="1" parent="1">
          <mxGeometry x="272.5" y="30" width="60" height="50" as="geometry" />
        </mxCell>
        <mxCell id="-qnGBxWbzr4GxB2GnGsg-15" value="Access options menu" style="text;html=1;align=center;verticalAlign=middle;whiteSpace=wrap;rounded=0;" vertex="1" parent="1">
          <mxGeometry x="200" y="70" width="60" height="30" as="geometry" />
        </mxCell>
        <mxCell id="-qnGBxWbzr4GxB2GnGsg-16" value="Exit the game" style="text;html=1;align=center;verticalAlign=middle;whiteSpace=wrap;rounded=0;" vertex="1" parent="1">
          <mxGeometry x="180" y="120" width="60" height="30" as="geometry" />
        </mxCell>
        <mxCell id="-qnGBxWbzr4GxB2GnGsg-17" value="" style="endArrow=classic;html=1;rounded=0;exitX=0.5;exitY=1;exitDx=0;exitDy=0;" edge="1" parent="1" source="-qnGBxWbzr4GxB2GnGsg-14">
          <mxGeometry width="50" height="50" relative="1" as="geometry">
            <mxPoint x="320" y="90" as="sourcePoint" />
            <mxPoint x="360" y="150" as="targetPoint" />
          </mxGeometry>
        </mxCell>
        <mxCell id="-qnGBxWbzr4GxB2GnGsg-18" value="" style="endArrow=classic;html=1;rounded=0;exitX=1;exitY=1;exitDx=0;exitDy=0;" edge="1" parent="1" source="-qnGBxWbzr4GxB2GnGsg-15">
          <mxGeometry width="50" height="50" relative="1" as="geometry">
            <mxPoint x="260" y="70" as="sourcePoint" />
            <mxPoint x="360" y="230" as="targetPoint" />
          </mxGeometry>
        </mxCell>
        <mxCell id="-qnGBxWbzr4GxB2GnGsg-19" value="" style="endArrow=classic;html=1;rounded=0;exitX=1;exitY=1;exitDx=0;exitDy=0;" edge="1" parent="1" source="-qnGBxWbzr4GxB2GnGsg-16">
          <mxGeometry width="50" height="50" relative="1" as="geometry">
            <mxPoint x="270" y="80" as="sourcePoint" />
            <mxPoint x="360" y="310" as="targetPoint" />
          </mxGeometry>
        </mxCell>
        <mxCell id="-qnGBxWbzr4GxB2GnGsg-21" value="Displays title of game" style="text;html=1;align=center;verticalAlign=middle;whiteSpace=wrap;rounded=0;" vertex="1" parent="1">
          <mxGeometry x="590" y="60" width="60" height="30" as="geometry" />
        </mxCell>
        <mxCell id="-qnGBxWbzr4GxB2GnGsg-22" value="" style="endArrow=classic;html=1;rounded=0;exitX=0;exitY=0.5;exitDx=0;exitDy=0;entryX=0.843;entryY=0.545;entryDx=0;entryDy=0;entryPerimeter=0;" edge="1" parent="1" source="-qnGBxWbzr4GxB2GnGsg-21" target="-qnGBxWbzr4GxB2GnGsg-2">
          <mxGeometry width="50" height="50" relative="1" as="geometry">
            <mxPoint x="530" y="70" as="sourcePoint" />
            <mxPoint x="580" y="20" as="targetPoint" />
          </mxGeometry>
        </mxCell>
      </root>
    </mxGraphModel>
  </diagram>
</mxfile>
